<svg width="72" height="73" viewBox="0 0 72 73" fill="none" xmlns="http://www.w3.org/2000/svg">
<path d="M2.89687 60.724L3.27657 61.0234L36 61.0234L68.7234 61.0234L69.1031 60.724L69.4687 60.4389L69.4687 43.0586L69.4687 25.6783L69.1031 25.3932C68.7516 25.1223 68.5406 25.0938 66.3609 25.0938L63.9844 25.0938L63.9844 22.1139L63.9844 19.1197L63.6187 18.8346C63.2672 18.5637 63.0562 18.5352 60.8766 18.5352L58.5 18.5352L58.5 15.5553L58.5 12.5611L58.1344 12.276L57.7547 11.9766L36 11.9766L14.2453 11.9766L13.8656 12.276L13.5 12.5611L13.5 15.5553L13.5 18.5352L11.1234 18.5352C8.94375 18.5352 8.73281 18.5637 8.38125 18.8346L8.01562 19.1197L8.01562 22.1139L8.01562 25.0938L5.63906 25.0938C3.45937 25.0938 3.24843 25.1223 2.89687 25.3932L2.53125 25.6783L2.53125 43.0586L2.53125 60.4389L2.89687 60.724ZM36 27.2324L67.3594 27.2324L67.3594 43.0586L67.3594 58.8848L36 58.8848L4.64062 58.8848L4.64062 43.0586L4.64062 27.2324L36 27.2324ZM36 20.6738L61.875 20.6738L61.875 22.8838L61.875 25.0938L36 25.0938L10.125 25.0938L10.125 22.8838L10.125 20.6738L36 20.6738ZM36 14.1152L56.3906 14.1152L56.3906 16.3252L56.3906 18.5352L36 18.5352L15.6094 18.5352L15.6094 16.3252L15.6094 14.1152L36 14.1152Z" fill="#6E7191"/>
<path d="M33.0752 67.967C35.3111 70.2482 35.5361 70.4336 36.0002 70.4336C36.4642 70.4336 36.6892 70.2482 38.9252 67.967C41.5267 65.315 41.6252 65.1297 41.0486 64.3883C40.8377 64.1174 40.6267 64.0176 40.2611 64.0176C39.8111 64.0176 39.5861 64.2029 37.8845 65.8996L36.0002 67.7674L34.1158 65.8996C32.4002 64.1887 32.1892 64.0176 31.7252 64.0176C31.0783 64.0176 30.6564 64.4311 30.6564 65.0441C30.6564 65.4434 30.9658 65.7998 33.0752 67.967Z" fill="#6E7191"/>
<path d="M30.9797 8.66875C31.1766 8.8541 31.4859 8.98242 31.7672 8.98242C32.175 8.98242 32.4703 8.74004 34.1156 7.10039L36 5.21836L37.8703 7.10039C39.6 8.82559 39.7969 8.98242 40.2609 8.98242C40.9219 8.98242 41.3437 8.5832 41.3437 7.95586C41.3437 7.55664 41.0344 7.2002 38.925 5.03301C36.6891 2.75176 36.4641 2.56641 36 2.56641C35.5359 2.56641 35.3109 2.75176 33.075 5.03301C31.0219 7.12891 30.6562 7.5709 30.6562 7.92734C30.6562 8.19824 30.7828 8.4834 30.9797 8.66875Z" fill="#6E7191"/>
</svg>
