<svg width="77" height="77" viewBox="0 0 77 77" fill="none" xmlns="http://www.w3.org/2000/svg">
<path d="M28.8004 1.7746C26.4393 2.58671 24.6497 4.5869 24.2135 6.91796C23.9128 8.54217 24.1534 9.20389 25.0407 9.20389C25.6573 9.20389 25.9731 8.81288 26.0633 7.89549C26.2288 6.22616 27.3417 4.63202 28.8456 3.8951C29.8532 3.38378 31.9436 3.38378 32.9663 3.88006C33.9438 4.36131 34.8461 5.29374 35.3124 6.28631C35.6432 6.99315 35.7184 7.35409 35.7184 8.34667C35.7034 9.42948 35.6583 9.65506 35.192 10.4973C34.6958 11.4447 33.8987 12.2267 33.0114 12.6779C31.9436 13.2043 31.1766 13.2344 17.07 13.2344C1.5647 13.2344 2.64751 13.1592 2.73775 14.2721C2.76783 14.6631 2.88814 14.8586 3.15884 14.9939C3.45962 15.1594 6.4524 15.1894 17.8971 15.1594L32.2594 15.1142L33.252 14.7232C36.0643 13.6254 37.7487 11.2191 37.7487 8.27147C37.7487 5.2787 35.8387 2.64686 33.0565 1.7746C31.8835 1.41366 29.8381 1.41366 28.8004 1.7746Z" fill="#6E7191"/>
<path d="M3.09808 7.70002C2.76722 8.16623 2.79729 8.6174 3.17327 8.9633C3.44397 9.21897 3.77483 9.24904 5.83518 9.29416C9.09866 9.36936 9.62503 9.21897 9.62503 8.27151C9.62503 7.41428 9.44456 7.36916 6.24124 7.36916C3.39886 7.36916 3.32366 7.3842 3.09808 7.70002Z" fill="#6E7191"/>
<path d="M12.0315 7.60977C11.7457 7.94063 11.7909 8.69258 12.0916 8.99336C12.3022 9.20391 12.6631 9.24902 14.3776 9.24902C16.2274 9.24902 16.4379 9.21895 16.6334 8.96328C16.9192 8.57227 16.9041 7.89551 16.6034 7.60977C16.2575 7.26387 12.3172 7.26387 12.0315 7.60977Z" fill="#6E7191"/>
<path d="M45.0423 9.53477C42.621 10.1213 40.5757 12.1967 40.0192 14.6029C39.6432 16.2271 39.9139 17.1445 40.7712 17.1445C41.4329 17.1445 41.6885 16.8137 41.8239 15.8061C42.0044 14.5729 42.3803 13.7156 43.1624 12.8734C44.952 10.9334 47.9298 10.8281 49.96 12.6178C50.6669 13.2344 51.3887 14.6631 51.5091 15.7008C51.7647 17.6559 50.5165 19.7764 48.5915 20.6637C47.8997 20.9795 47.8846 20.9795 25.5516 21.0547C6.91824 21.1148 3.15847 21.16 2.96296 21.3404C2.61707 21.6111 2.6321 22.4533 2.978 22.7541C3.23367 22.9947 5.00828 23.0098 25.4313 23.0098C39.8237 23.0098 47.8245 22.9496 48.2606 22.8443C51.9151 22.0021 54.2612 18.1521 53.3137 14.5428C52.3512 10.8281 48.7268 8.63242 45.0423 9.53477Z" fill="#6E7191"/>
<path d="M3.03868 28.9652C2.61759 29.251 2.58751 30.0781 2.97853 30.424C3.23419 30.6646 4.79825 30.6797 22.3037 30.6797C41.1627 30.6797 41.3582 30.6797 41.659 30.3789C42.05 29.9879 42.035 29.6119 41.644 29.1156L41.3432 28.7246H22.3488C5.41486 28.7246 3.33946 28.7547 3.03868 28.9652Z" fill="#6E7191"/>
<path d="M44.6676 29.0254C44.3066 29.3863 44.2765 29.8826 44.6074 30.3488C44.833 30.6797 44.8931 30.6797 48.1115 30.6797C51.0892 30.6797 51.4051 30.6496 51.6306 30.409C51.9765 30.033 51.9465 29.3863 51.5855 29.0254C51.2998 28.7396 51.0892 28.7246 48.1265 28.7246C45.1638 28.7246 44.9533 28.7396 44.6676 29.0254Z" fill="#6E7191"/>
<path d="M61.5707 29.8977C61.1947 30.1533 61.0594 30.7398 61.0594 32.1836V33.7025L60.2021 33.101C59.7209 32.74 59.1795 32.4844 58.9539 32.4844C58.4275 32.4844 58.0516 32.9205 58.0516 33.507C58.0516 33.9432 58.1869 34.0936 59.5555 35.0861L61.0443 36.1689L61.0594 39.2219V42.2748L60.6533 42.0492C60.4127 41.9139 59.39 41.2822 58.3523 40.6355C56.2318 39.2971 56.3672 39.5076 56.1717 37.1014C56.0965 36.0787 55.9912 35.6877 55.7807 35.4771C55.4047 35.1012 54.8182 35.1162 54.4271 35.5072C54.1264 35.808 54.1113 35.9283 54.2016 36.951C54.3219 38.2443 54.5174 38.2443 52.3818 36.9209C51.66 36.4547 50.893 36.0937 50.6824 36.0937C50.1561 36.0937 49.7801 36.5299 49.7801 37.1314C49.7801 37.6127 49.9756 37.7781 52.7729 39.5076L53.2842 39.8234L52.2615 40.2896C51.69 40.5604 51.1637 40.8461 51.1035 40.9514C50.893 41.2822 50.9832 41.9139 51.2539 42.1545C51.675 42.5455 52.2916 42.4553 53.7654 41.8086C54.5023 41.4777 55.1941 41.207 55.2994 41.207C55.4348 41.207 59.2998 43.508 59.9615 43.9742C59.9766 43.9893 58.8787 44.6359 57.5102 45.4029L55.0287 46.8166L53.5248 46.1098C51.8855 45.3578 51.3141 45.2676 50.9381 45.6887C50.6674 45.9895 50.6072 46.576 50.8178 46.9068C50.893 47.0271 51.4043 47.3279 51.9607 47.5836L52.9533 48.0498L51.4795 48.877C50.6824 49.3281 49.9004 49.8094 49.75 49.9598C49.1785 50.5312 49.5846 51.584 50.3816 51.584C50.5771 51.584 51.3893 51.208 52.2014 50.7568C52.9984 50.3057 53.7053 49.9297 53.7504 49.9297C53.8105 49.9297 53.8105 50.426 53.7654 51.0125C53.6602 52.2307 53.7805 52.5465 54.4422 52.7119C54.7129 52.7721 54.9535 52.7119 55.2242 52.5014C55.5852 52.2156 55.6303 52.0352 55.7957 50.3809L55.9912 48.5762L58.1869 47.3129C59.39 46.6361 60.533 45.9895 60.7285 45.8842L61.0594 45.7037V48.6363V51.5689L59.6006 52.6668C58.2471 53.6744 58.1268 53.8098 58.0816 54.3211C58.0516 54.7422 58.1117 54.9227 58.3824 55.1031C58.8937 55.4641 59.2547 55.3889 60.157 54.7422L60.9842 54.1406L61.0594 55.9152C61.1496 57.9154 61.2699 58.2012 62.052 58.2012C62.9092 58.2012 63.0145 57.9455 63.0145 55.9303C63.0145 54.9527 63.0445 54.1406 63.0896 54.1406C63.1197 54.1406 63.5408 54.4113 64.0221 54.7422C64.9996 55.434 65.4658 55.4791 65.902 54.8775C66.3982 54.2158 66.1576 53.8398 64.5033 52.6367L63.0145 51.5689V48.7266V45.8842L65.4658 47.4182L67.9322 48.9521L68.0826 50.817C68.2631 52.8773 68.3684 53.0879 69.2707 53.0879C69.9775 53.0879 70.1129 52.8172 70.0527 51.4486C70.0076 50.2605 70.0076 50.2455 70.3234 50.4561C72.3387 51.7795 72.9703 52.0803 73.3613 51.9449C73.9178 51.7494 74.2486 51.1178 74.0381 50.6516C73.9478 50.4561 73.241 49.8996 72.4439 49.4033L71.0002 48.516L71.9326 48.11C72.4439 47.8844 72.9853 47.5385 73.1357 47.358C73.602 46.7715 73.1809 45.8691 72.4289 45.8691C72.2484 45.8691 71.3912 46.1699 70.5189 46.5459L68.9248 47.2377L66.4283 45.6887C65.0598 44.8314 63.9318 44.1096 63.9318 44.0645C63.9318 44.0193 65.0598 43.3426 66.4584 42.5455L68.985 41.1168L70.534 41.8387C71.3912 42.2297 72.2334 42.5605 72.4289 42.5605C72.865 42.5605 73.3914 42.0643 73.3914 41.6732C73.3914 41.0867 73.1658 40.8611 72.1432 40.3799L71.1055 39.8986L72.474 39.1166C73.226 38.6805 73.9478 38.2293 74.0682 38.0939C74.3689 37.8082 74.3539 37.0863 74.0531 36.7855C73.632 36.3645 72.9853 36.5148 71.5266 37.342L70.143 38.1541L70.2633 37.0863C70.3535 36.4096 70.3385 35.8982 70.2482 35.6877C70.0377 35.2365 69.391 35.0861 68.8947 35.3568C68.5338 35.5523 68.4887 35.7178 68.3082 37.1465C68.2029 38.0187 68.0676 38.891 68.0074 39.0715C67.9322 39.3271 67.2254 39.8234 65.4658 40.8461L63.0145 42.2447V39.252V36.2441L64.4281 35.1914C66.2328 33.868 66.5035 33.4168 65.8719 32.7852C65.4207 32.334 64.8492 32.4242 63.9168 33.0859L63.0896 33.6875L63.0445 32.0031C63.0145 30.4842 62.9844 30.2736 62.6986 30.033C62.3678 29.7623 61.8564 29.7021 61.5707 29.8977Z" fill="#6E7191"/>
<path d="M3.03868 36.6352C2.61759 36.9209 2.58751 37.748 2.97853 38.0939C3.21915 38.3195 3.7756 38.3496 7.6256 38.3496C11.6561 38.3496 12.002 38.3346 12.2276 38.0789C12.5584 37.7029 12.5434 36.951 12.2125 36.6502C11.9719 36.4246 11.4305 36.3945 7.65568 36.3945C4.03126 36.3945 3.32443 36.4246 3.03868 36.6352Z" fill="#6E7191"/>
<path d="M18.7247 36.6953C18.3938 37.0713 18.3938 37.6728 18.7247 38.0488C18.9804 38.3346 19.3112 38.3496 28.7106 38.3797C38.3056 38.4248 38.4409 38.4248 39.1327 38.7556C40.1253 39.2068 41.1329 40.1994 41.6142 41.192C41.9751 41.8988 42.0353 42.2297 42.0353 43.2373C42.0353 44.2449 41.9751 44.5758 41.6142 45.2826C41.1329 46.2752 40.1253 47.2678 39.1327 47.7189C38.0349 48.2152 36.2903 48.1851 35.1774 47.6287C33.5983 46.8617 32.6058 45.433 32.3501 43.5982C32.2749 42.9816 32.1396 42.5906 31.9591 42.4553C31.2673 41.959 30.38 42.4703 30.38 43.3877C30.38 46.4105 32.7261 49.2529 35.764 49.9146C40.6968 50.9674 45.1032 46.4406 43.8399 41.6131C43.1782 39.0715 41.3886 37.2818 38.847 36.6201C38.1251 36.4246 36.4257 36.3945 28.4851 36.3945C19.236 36.3945 18.9954 36.4096 18.7247 36.6953Z" fill="#6E7191"/>
<path d="M16.0918 47.373C15.8211 47.6437 15.791 47.8693 15.791 49.3432V50.9975L14.9187 50.3959C14.4375 50.05 13.8811 49.7793 13.6705 49.7793C13.1592 49.7793 12.7832 50.2154 12.7832 50.817C12.7832 51.2381 12.9186 51.3885 14.2871 52.3811L15.776 53.4639L15.791 56.5018C15.791 58.1861 15.7609 59.5547 15.7309 59.5547C15.6857 59.5547 14.6631 58.923 13.4449 58.1561C11.8357 57.1635 11.2041 56.6672 11.1139 56.3965C11.0537 56.1859 10.9484 55.3588 10.9033 54.5316C10.8131 53.3736 10.7379 52.9977 10.5123 52.7721C10.1363 52.3961 9.5498 52.4111 9.15879 52.8021C8.85801 53.1029 8.84297 53.2383 8.9332 54.2459C9.03848 55.5393 9.21895 55.5393 7.11348 54.2158C5.72988 53.3436 5.17344 53.2082 4.76738 53.6594C4.43652 54.0203 4.43652 54.8023 4.75234 55.058C4.8877 55.1633 5.66973 55.6746 6.49688 56.1859L8.00078 57.1334L6.97812 57.5996C6.42168 57.8553 5.89531 58.141 5.83516 58.2463C5.62461 58.5771 5.71484 59.2088 5.98555 59.4494C6.40664 59.8404 6.91797 59.7652 8.43691 59.1035C9.20391 58.7727 9.91074 58.502 10.016 58.502C10.1213 58.502 11.2191 59.1336 12.4523 59.9006L14.7082 61.2992L12.2418 62.6979L9.76035 64.1115L8.22637 63.4047C6.60215 62.6678 6.03066 62.5625 5.65469 62.9535C5.38398 63.2092 5.33887 63.7957 5.54941 64.2018C5.63965 64.3521 6.15098 64.6529 6.69238 64.8936L7.68496 65.3146L6.51191 65.9914C4.31621 67.2396 4.21094 67.3299 4.21094 67.8863C4.21094 68.4578 4.58691 68.8789 5.11328 68.8789C5.30879 68.8789 6.1209 68.5029 6.93301 68.0518C7.73008 67.6006 8.43691 67.2246 8.48203 67.2246C8.54219 67.2246 8.54219 67.7209 8.49707 68.3074C8.3918 69.5406 8.51211 69.8414 9.20391 70.0068C9.51973 70.082 9.7002 70.0219 9.9709 69.7512C10.2867 69.4354 10.3619 69.1496 10.5273 67.6307L10.7078 65.8711L13.1291 64.4875C14.4676 63.7205 15.6105 63.0588 15.6707 63.0437C15.7309 63.0137 15.791 64.307 15.791 65.9312V68.8639L14.3322 69.9617C12.9787 70.9693 12.8584 71.1047 12.8133 71.616C12.7832 72.0371 12.8434 72.2176 13.1141 72.398C13.6254 72.759 13.9863 72.6838 14.8887 72.0371L15.7158 71.4355L15.791 73.2102C15.8812 75.2104 16.0016 75.4961 16.7836 75.4961C17.6408 75.4961 17.7461 75.2404 17.7461 73.2252C17.7461 72.2477 17.7912 71.4355 17.8363 71.4355C17.8814 71.4355 18.2273 71.6762 18.6033 71.9619C19.7012 72.8041 20.2125 72.8342 20.6938 72.1123C21.0848 71.5107 20.7689 71.0445 19.1598 69.8865L17.7461 68.8639V66.0816C17.7461 64.5627 17.7912 63.3145 17.8664 63.3145C17.9266 63.3145 19.0244 63.9912 20.3027 64.7883L22.6338 66.2621L22.7992 68.0818C22.8895 69.1346 23.0398 70.0068 23.1451 70.1422C23.4158 70.458 24.273 70.443 24.5889 70.1271C24.7994 69.9316 24.8295 69.6459 24.7844 68.7285L24.7393 67.5855L26.198 68.4729C27.7922 69.4504 28.1982 69.5105 28.6494 68.8187C29.1006 68.142 28.8299 67.751 27.2057 66.7434L25.7168 65.826L26.6342 65.4199C27.1305 65.1943 27.6418 64.9086 27.7771 64.7732C28.2885 64.277 27.8674 63.1641 27.1605 63.1641C26.9801 63.1641 26.1229 63.4648 25.2506 63.8559L23.6564 64.5326L21.1449 62.9836C19.7764 62.1264 18.6484 61.4045 18.6635 61.3594C18.6635 61.3143 19.7914 60.6375 21.175 59.8404L23.7016 58.4117L25.2506 59.1336C26.965 59.9307 27.3711 60.0059 27.8223 59.5547C28.4689 58.908 28.093 58.2162 26.7996 57.6447L25.807 57.2086L27.1906 56.4115C27.9576 55.9754 28.6795 55.5242 28.7998 55.3889C29.1156 55.0881 29.0855 54.3963 28.7547 54.0955C28.2885 53.6594 27.6869 53.7947 26.2131 54.667C24.9648 55.4039 24.8145 55.449 24.8746 55.1482C25.1303 53.885 25.1152 53.2834 24.7994 52.8924C24.4385 52.4262 23.9271 52.366 23.476 52.742C23.2203 52.9676 23.1301 53.3285 22.9496 54.8023C22.8293 55.7799 22.6789 56.6371 22.6037 56.6973C22.5436 56.7574 21.4156 57.4342 20.1223 58.1861L17.7461 59.5396V56.5469V53.5391L19.1598 52.4863C20.7088 51.3584 20.9645 51.0426 20.8141 50.4561C20.6035 49.5988 19.7764 49.5687 18.6484 50.3809L17.8213 50.9824L17.7461 49.2379C17.6859 47.734 17.6258 47.4633 17.3852 47.2828C16.9641 46.982 16.4377 47.0271 16.0918 47.373Z" fill="#6E7191"/>
</svg>
