<svg width="72" height="73" viewBox="0 0 72 73" fill="none" xmlns="http://www.w3.org/2000/svg">
<g clip-path="url(#clip0_204_686)">
<path d="M52.4529 0.941027C52.1997 1.24044 52.2138 1.96759 52.481 2.22423C52.6216 2.36681 53.1841 2.48087 54.2247 2.56642C55.0825 2.63771 56.1794 2.78028 56.6997 2.90861C62.9154 4.3629 67.6825 9.21056 69.131 15.5268C69.2575 16.0401 69.3982 17.1664 69.4685 18.0219C69.595 19.7186 69.7357 20.0037 70.4388 20.0037C71.17 20.0037 71.2966 19.7756 71.2966 18.3926C71.2966 10.9785 65.9529 3.84962 58.6544 1.51134C56.2779 0.755676 52.8607 0.427746 52.4529 0.941027Z" fill="#6E7191"/>
<path d="M52.4673 6.75821C52.2001 7.08614 52.2142 7.79904 52.4954 8.08419C52.636 8.24103 53.1282 8.34083 54.0282 8.42638C55.6173 8.56896 56.5595 8.83986 57.9517 9.567C60.0048 10.6506 61.4954 12.1619 62.5642 14.2436C63.2814 15.6551 63.5485 16.6104 63.6892 18.2215C63.8157 19.7043 63.9845 20.0037 64.6735 20.0037C65.4751 20.0037 65.5735 19.7899 65.4892 18.1074C65.3485 15.1418 64.111 12.3758 61.9454 10.1943C59.7939 7.99864 57.0657 6.74396 54.1407 6.60138C52.861 6.53009 52.636 6.55861 52.4673 6.75821Z" fill="#6E7191"/>
<path d="M41.8355 9.89494C41.273 10.1658 37.1387 14.2864 21.1496 30.526C-1.09726 53.1104 0.618365 51.2141 0.730865 53.2102C0.75899 53.809 0.899615 54.4934 1.0543 54.8213C1.22305 55.2063 3.90899 58.0293 9.2668 63.4758C18.1684 72.5153 17.8871 72.2871 19.7574 72.2871C20.5027 72.2871 20.9106 72.2016 21.4449 71.9449C22.0215 71.674 25.9309 67.7674 42.0746 51.3852C63.7871 29.3426 62.5918 30.6543 62.5918 28.9434C62.6059 27.874 62.3949 27.2039 61.7902 26.377C60.9605 25.2221 45.9559 10.1944 45.3512 9.89494C44.9855 9.72385 44.3949 9.60978 43.6637 9.58127C42.7074 9.55275 42.4402 9.59553 41.8355 9.89494ZM44.5777 11.6344C45.084 11.9766 59.8496 26.9188 60.3418 27.5746C60.6793 28.0309 60.7496 28.2733 60.7496 28.9149V29.699L50.8074 39.8363C45.323 45.4112 36.548 54.3508 31.2887 59.7117C26.0293 65.0727 21.4871 69.6637 21.1918 69.8918C20.6152 70.3623 19.7434 70.5477 19.0262 70.3766C18.759 70.3053 16.1715 67.7817 10.8559 62.4065C6.58086 58.0721 2.95274 54.3223 2.78399 54.0656C2.33399 53.3242 2.47461 52.2406 3.12149 51.4422C3.88086 50.5012 42.4121 11.6487 42.7074 11.5346C43.1855 11.335 44.2262 11.4063 44.5777 11.6344Z" fill="#6E7191"/>
<path d="M38.7146 21.3155C35.7193 22.1709 33.4271 24.0387 32.1193 26.7192C31.2896 28.4301 31.0365 29.7133 31.1209 31.7237C31.2896 36.0723 33.9615 39.6368 38.0677 41.034C39.038 41.362 39.3896 41.4047 41.1334 41.4047C42.8912 41.4047 43.2287 41.362 44.2271 41.0198C45.8443 40.478 47.0255 39.7223 48.3052 38.4248C50.1896 36.5286 51.188 34.1332 51.188 31.5098C51.188 30.1696 51.0615 29.8702 50.4568 29.7276C50.1615 29.6563 49.9927 29.7133 49.7255 29.9985C49.4021 30.3121 49.3599 30.469 49.3599 31.3957C49.3599 35.2168 46.5615 38.6245 42.7505 39.4371C40.8943 39.8364 39.1224 39.5512 37.2662 38.5532C34.1584 36.8993 32.3865 33.1067 33.1037 29.6563C33.7646 26.5053 36.1412 23.9817 39.1927 23.169C40.2193 22.8981 42.174 22.8981 43.1724 23.169C44.3818 23.4969 45.8443 24.3096 46.8568 25.2364C47.813 26.1061 48.2349 26.2629 48.699 25.9065C49.0927 25.6071 49.1209 25.0653 48.7693 24.5805C47.9255 23.4256 46.1537 22.1995 44.4099 21.5721C43.538 21.2584 43.1021 21.2014 41.4146 21.1586C39.9943 21.1159 39.249 21.1586 38.7146 21.3155Z" fill="#6E7191"/>
<path d="M39.9656 25.8066C38.4188 26.1346 36.8578 27.4035 36.1688 28.9148C35.8313 29.642 35.7891 29.8986 35.7891 31.2959C35.7891 32.7359 35.8172 32.9355 36.1828 33.6912C36.7031 34.7463 37.7297 35.7871 38.7703 36.3146C39.5156 36.6854 39.7125 36.7139 41.1328 36.7139C42.5953 36.7139 42.7359 36.6854 43.6078 36.2576C44.7609 35.6873 45.5766 34.8033 46.1672 33.5344C46.5609 32.6789 46.6031 32.4365 46.6031 31.2959C46.6031 29.4994 46.2375 28.6012 45.0141 27.3607C44.3109 26.6479 43.875 26.3484 43.2422 26.1061C42.2859 25.7496 40.8656 25.607 39.9656 25.8066ZM42.75 27.9453C44.325 28.758 45.1406 30.583 44.6625 32.2512C44.0297 34.4469 41.5547 35.5732 39.5438 34.5609C37.2094 33.3918 36.8297 30.198 38.8266 28.4729C39.9234 27.5033 41.4984 27.3037 42.75 27.9453Z" fill="#6E7191"/>
<path d="M23.0627 35.5447C22.3174 35.7871 21.333 36.8707 21.108 37.6834C20.4471 40.0645 22.5424 42.36 24.8627 41.7897C26.4377 41.3904 27.3377 40.2498 27.3377 38.6529C27.3518 36.3147 25.2986 34.8319 23.0627 35.5447ZM25.0033 37.5694C25.8471 38.2822 25.6502 39.4514 24.6377 39.8791C24.1877 40.0645 24.0893 40.0645 23.6814 39.8649C23.1049 39.594 22.7252 38.9096 22.8518 38.3535C22.9643 37.8117 23.6814 37.2129 24.1877 37.2129C24.4127 37.2129 24.7783 37.3697 25.0033 37.5694Z" fill="#6E7191"/>
<path d="M15.3283 43.2867C12.8392 44.3703 12.783 47.949 15.2158 49.2037C16.0595 49.6457 17.5923 49.5459 18.3939 49.0184C19.4908 48.2769 20.0533 46.7086 19.7017 45.3684C19.4908 44.6127 18.6752 43.6717 17.9298 43.3295C17.2408 43.0016 16.0033 42.9873 15.3283 43.2867ZM17.2127 45.0689C17.6908 45.2971 18.0705 46.0527 17.9439 46.5375C17.6064 47.892 15.7502 48.006 15.3283 46.7086C15.1455 46.124 15.3002 45.6393 15.8345 45.2115C16.2564 44.8836 16.6923 44.8266 17.2127 45.0689Z" fill="#6E7191"/>
<path d="M33.1019 45.3256C31.9769 45.6108 31.1191 46.5233 30.7956 47.7352C30.3316 49.5174 31.5972 51.4137 33.4253 51.6989C35.3238 51.984 37.1238 50.4157 37.1238 48.4766C37.1238 46.395 35.0847 44.8123 33.1019 45.3256ZM34.9159 47.6211C35.3941 48.1629 35.4081 48.7475 34.9441 49.3036C34.48 49.8596 33.9034 49.9879 33.3269 49.6885C32.3847 49.1895 32.3284 47.892 33.2425 47.3217C33.8191 46.951 34.4097 47.0651 34.9159 47.6211Z" fill="#6E7191"/>
<path d="M25.2703 53.0961C23.9203 53.5952 23.2031 54.6502 23.2031 56.1616C23.2031 58.6567 25.65 60.168 27.8438 59.0274C28.9266 58.4713 29.5312 57.4163 29.5312 56.1473C29.5172 53.9088 27.3516 52.3547 25.2703 53.0961ZM26.9859 54.9497C27.7031 55.3346 27.9141 56.3041 27.4078 56.9457C26.9859 57.4875 26.5078 57.6444 25.9312 57.459C25.3406 57.2594 25.0312 56.8317 25.0312 56.2043C25.0312 55.5913 25.2281 55.2348 25.7062 54.9782C26.1844 54.7073 26.4937 54.693 26.9859 54.9497Z" fill="#6E7191"/>
<path d="M10.9688 56.2756C10.6453 56.3896 10.4062 56.7604 10.4062 57.1738C10.4062 57.4447 10.7578 57.8867 11.7844 58.9275C12.9375 60.0967 13.2188 60.3105 13.5984 60.3105C14.1609 60.3105 14.4844 59.9826 14.4844 59.4266C14.4844 59.0559 14.2594 58.7564 13.1906 57.6586C11.9391 56.3896 11.4609 56.0902 10.9688 56.2756Z" fill="#6E7191"/>
<path d="M52.4529 12.6324C52.1997 12.9318 52.2138 13.659 52.481 13.9156C52.5935 14.0297 53.1138 14.1865 53.62 14.2578C54.8435 14.4432 55.7435 14.8709 56.531 15.6836C57.3325 16.482 57.7544 17.3945 57.9372 18.635C58.0779 19.7043 58.3029 20.0037 58.9075 20.0037C59.6669 20.0037 59.8075 19.7471 59.7232 18.5352C59.5544 15.8119 57.7544 13.5022 55.1669 12.6895C54.0419 12.3473 52.706 12.3045 52.4529 12.6324Z" fill="#6E7191"/>
</g>
<defs>
<clipPath id="clip0_204_686">
<rect width="72" height="73" fill="white"/>
</clipPath>
</defs>
</svg>
