<svg width="170" height="113" viewBox="0 0 170 113" fill="none" xmlns="http://www.w3.org/2000/svg">
<g clip-path="url(#clip0_133_153)">
<path fill-rule="evenodd" clip-rule="evenodd" d="M65.834 39.7567L65.9765 13.3948C65.9765 12.6823 66.404 12.1123 67.1165 11.8273L102.028 0.142597C102.598 0.000100177 103.026 0.000100199 103.453 0.427591C103.881 0.712584 104.166 1.14007 104.166 1.71006V51.299C104.166 51.8689 103.881 52.2964 103.453 52.5814C103.026 52.8664 102.456 53.0089 102.028 52.8664L66.974 41.3242C66.2615 41.0392 65.834 40.4692 65.834 39.7567ZM68.2564 39.1867L101.743 50.159V2.70754L68.3989 13.9648L68.2564 39.1867Z" fill="#00AEEF"/>
<path fill-rule="evenodd" clip-rule="evenodd" d="M82.0791 8.5498H83.3616V45.029H82.0791V8.5498Z" fill="#00AEEF"/>
<path fill-rule="evenodd" clip-rule="evenodd" d="M67.4014 27.217V25.792H102.741V27.217H67.4014Z" fill="#00AEEF"/>
<path d="M12.1123 93.7631H15.8173L22.2297 71.6761H22.5147L28.7846 93.7631H32.4895L41.0394 64.5513H43.7469V62.9838H34.4845V64.5513H38.4744L38.7594 64.8363L31.777 88.3482H31.492L24.7946 64.8363L25.0796 64.5513H28.0721V62.9838H17.2422V64.5513H20.2347L20.9472 67.6862L15.1048 88.3482H14.8198L7.69489 64.8363L7.97988 64.5513H10.9723V62.9838H0V64.5513H3.27745L12.1123 93.7631ZM49.8743 67.5437C51.2992 67.5437 52.4392 66.4037 52.4392 64.9788C52.4392 63.5538 51.2992 62.4138 49.8743 62.4138C48.4493 62.4138 47.3093 63.5538 47.3093 64.9788C47.3093 66.4037 48.5918 67.5437 49.8743 67.5437ZM52.1542 92.1957L51.8692 91.9107V72.6736L51.5842 72.3886C49.1618 72.5311 46.8818 72.6736 44.4593 72.6736V74.2411H47.8793L48.1643 74.526V92.0532L47.8793 92.3382H44.4593V93.9056H55.5742V92.3382H52.1542V92.1957ZM81.6513 92.1957L81.3663 91.9107V78.0885C81.3663 74.811 79.7988 72.1036 74.9539 72.1036C70.964 72.1036 68.2565 74.0986 66.5465 76.9485H66.2615V72.6736L65.9765 72.3886C63.5541 72.5311 61.4166 72.6736 58.9941 72.6736V74.2411H62.4141L62.6991 74.526V92.0532L62.4141 92.3382H58.9941V93.9056H70.109V92.3382H66.974L66.689 92.0532V80.0834C69.1115 75.951 71.5339 74.3836 74.0989 74.3836C76.9489 74.3836 77.8038 76.236 77.8038 79.2284V92.1957L77.5189 92.4807H74.0989V94.0481H85.2137V92.4807H81.6513V92.1957ZM94.3336 69.6812C94.3336 66.5462 96.8986 64.2663 100.746 64.2663C103.453 64.2663 107.728 65.5488 110.151 72.2461L111.718 71.8186C111.006 68.9687 110.578 65.9762 110.293 62.8413H108.726L107.728 64.6938C105.591 63.2688 103.738 62.4138 100.889 62.4138C95.4736 62.4138 91.0562 65.5487 91.0562 70.9636C91.0562 81.3659 108.726 78.231 108.726 86.7808C108.726 90.7707 104.878 92.3382 102.028 92.3382C98.8935 92.3382 94.1911 90.2007 91.3411 83.3609L89.7737 83.9308C90.4862 86.7808 91.1987 90.6282 91.3411 93.7631H92.9086L93.9061 91.9107C96.1861 93.3356 98.751 94.1906 101.743 94.1906C107.586 94.1906 111.861 91.0557 111.861 85.3558C112.003 74.0986 94.3336 77.5185 94.3336 69.6812ZM137.368 92.1957L137.083 91.9107V72.6736L136.798 72.3886C134.376 72.5311 132.096 72.6736 129.673 72.6736V74.2411H133.093L133.378 74.526V86.4958C130.956 90.6282 128.818 92.1957 126.253 92.1957C123.688 92.1957 122.833 90.3432 122.833 87.3508V72.6736L122.548 72.3886C120.126 72.5311 117.846 72.6736 115.423 72.6736V74.2411H118.843L119.128 74.526V88.3482C119.128 91.6257 120.696 94.3331 125.256 94.3331C129.246 94.3331 131.668 92.3382 133.378 89.4882H133.663V93.9056L133.948 94.0481C136.37 93.9056 138.508 93.7631 140.93 93.7631V92.1957H137.368ZM166.438 92.1957L166.153 91.9107V78.0885C166.153 74.811 164.585 72.1036 159.74 72.1036C155.75 72.1036 153.043 74.0986 151.333 76.9485H151.048V72.6736L150.763 72.3886C148.34 72.5311 146.203 72.6736 143.78 72.6736V74.2411H147.2L147.485 74.526V92.0532L147.2 92.3382H143.78V93.9056H154.895V92.3382H151.475L151.19 92.0532V80.0834C153.613 75.951 156.035 74.3836 158.6 74.3836C161.45 74.3836 162.305 76.236 162.305 79.2284V92.1957L162.02 92.4807H158.6V94.0481H169.715V92.4807H166.438V92.1957Z" fill="#355EBA"/>
<path d="M26.3625 106.445C24.6525 106.445 23.2275 107.728 23.2275 109.723C23.2275 111.718 24.6525 113 26.3625 113C28.0725 113 29.4974 111.718 29.4974 109.723C29.4974 107.728 28.0725 106.445 26.3625 106.445ZM26.505 112.573C25.365 112.573 24.51 111.433 24.51 109.723C24.51 108.013 24.9375 106.873 26.3625 106.873C27.5025 106.873 28.3575 108.013 28.3575 109.723C28.3575 111.433 27.7875 112.573 26.505 112.573ZM36.6223 111.718L35.9099 110.435C35.6249 109.865 35.1974 109.58 34.4849 109.58C35.4824 109.01 35.6249 107.87 36.3373 107.443C36.3373 108.013 36.7648 108.298 37.1923 108.298C37.6198 108.298 38.0473 107.87 38.0473 107.443C38.0473 107.015 37.7623 106.588 37.1923 106.588C35.1974 106.588 35.6249 109.58 33.2024 109.58V107.3H34.1999V106.873H30.9224V107.3H31.9199V112.573H30.9224V113H34.1999V112.573H33.2024V110.15C33.9149 110.15 34.4849 110.293 34.9124 110.863L36.1948 113.143H38.3323V112.715C37.6198 112.43 36.9073 112.288 36.6223 111.718ZM41.8948 106.445C40.1848 106.445 38.7598 107.728 38.7598 109.723C38.7598 111.718 40.1848 113 41.8948 113C43.6047 113 45.0297 111.718 45.0297 109.723C45.0297 107.728 43.6047 106.445 41.8948 106.445ZM41.8948 112.573C40.7548 112.573 39.8998 111.433 39.8998 109.723C39.8998 108.013 40.3273 106.873 41.7523 106.873C42.8922 106.873 43.7472 108.013 43.7472 109.723C43.7472 111.433 43.3197 112.573 41.8948 112.573ZM52.8671 107.158H53.8646V106.73H50.5871V107.158H51.5846V109.295H48.4497V107.158H49.4472V106.73H46.1697V107.158H47.1672V112.43H46.1697V112.858H49.4472V112.43H48.4497V109.723H51.7271V112.288H50.7296V112.715H54.0071V112.288H53.0096L52.8671 107.158ZM61.702 107.158H62.6995V106.73H59.422V107.158H60.4195V109.295H57.142V107.158H58.1395V106.73H54.8621V107.158H55.8596V112.43H54.8621V112.858H58.1395V112.43H57.142V109.723H60.4195V112.288H59.422V112.715H62.6995V112.288H61.702V107.158ZM70.1093 112.003C69.9669 112.288 69.6819 112.43 69.5394 112.43C69.2544 112.43 69.1119 112.145 69.1119 111.86V108.583C69.1119 106.873 67.9719 106.445 66.6894 106.445C65.4069 106.445 64.1244 107.015 64.1244 108.013C64.1244 108.44 64.4094 108.725 64.8369 108.725C65.2644 108.725 65.5494 108.44 65.5494 108.013C65.5494 107.728 65.4069 107.443 65.1219 107.3C65.5494 107.015 65.9769 106.873 66.5469 106.873C67.5444 106.873 67.9719 107.585 67.9719 108.725V110.15C67.5444 109.723 66.8319 109.295 65.9769 109.295C64.5519 109.295 63.6969 110.15 63.6969 111.148C63.6969 112.145 64.5519 113 65.9769 113C66.8319 113 67.5444 112.715 67.9719 112.145C68.1144 112.715 68.5419 113 69.2544 113C69.8243 113 70.2518 112.715 70.5368 112.288L70.1093 112.003ZM67.9719 111.575C67.4019 112.145 66.8319 112.43 66.2619 112.43C65.4069 112.43 64.8369 112.003 64.8369 111.29C64.8369 110.578 65.4069 110.15 66.2619 110.15C66.8319 110.15 67.4019 110.293 67.9719 111.005V111.575ZM76.0943 107.158H77.0917V106.73H73.6718C72.3893 106.73 71.1068 107.3 71.1068 108.583C71.1068 109.295 71.8193 110.008 72.6743 110.293C72.2468 110.435 71.9618 110.72 71.8193 111.148L71.2493 111.718C70.9643 112.288 70.6793 112.43 70.2518 112.43V112.858H71.8193L72.9593 111.005C73.3868 110.293 73.9568 110.293 74.6693 110.293H74.9543V112.43H73.9568V112.858H77.2342V112.43H76.2368L76.0943 107.158ZM74.9543 109.723H74.0993C73.1018 109.723 72.5318 109.295 72.5318 108.44C72.5318 107.585 73.1018 107.158 74.0993 107.158H74.9543V109.723ZM87.0666 111.718L86.3541 110.435C86.0691 109.865 85.6416 109.58 84.9291 109.58C85.9266 109.01 86.0691 107.87 86.7816 107.443C86.7816 108.013 87.2091 108.298 87.6366 108.298C88.0641 108.298 88.4916 107.87 88.4916 107.443C88.4916 107.015 88.2066 106.588 87.6366 106.588C85.6416 106.588 86.0691 109.58 83.6466 109.58V107.3H84.6441V106.873H81.3667V107.3H82.3642V112.573H81.3667V113H84.6441V112.573H83.6466V110.15C84.3591 110.15 84.9291 110.293 85.3566 110.863L86.6391 113.143H88.7766V112.715C88.2066 112.43 87.4941 112.288 87.0666 111.718ZM92.4815 106.445C90.7715 106.445 89.3466 107.728 89.3466 109.723C89.3466 111.718 90.7715 113 92.4815 113C94.1915 113 95.6165 111.718 95.6165 109.723C95.6165 107.728 94.049 106.445 92.4815 106.445ZM92.4815 112.573C91.3415 112.573 90.4865 111.433 90.4865 109.723C90.4865 108.013 90.914 106.873 92.339 106.873C93.479 106.873 94.334 108.013 94.334 109.723C94.334 111.433 93.9065 112.573 92.4815 112.573ZM105.021 107.158H106.161V106.73H103.881L101.601 111.86L99.3214 106.73H96.899V107.158H98.0389V112.43H96.899V112.858H99.7489V112.43H98.7514V108.155L100.746 112.858H101.744L103.596 108.44V112.43H102.599V112.858H106.019V112.43H104.879L105.021 107.158ZM113.714 107.158H114.711V106.73H107.159V107.158H108.299V112.43H107.301V112.858H110.579V112.43H109.581V107.158H112.574V112.43H111.576V112.858H114.854V112.43H113.856L113.714 107.158ZM122.264 112.003C122.121 112.288 121.836 112.43 121.694 112.43C121.409 112.43 121.266 112.145 121.266 111.86V108.583C121.266 106.873 120.126 106.445 118.844 106.445C117.561 106.445 116.279 107.015 116.279 108.013C116.279 108.44 116.564 108.725 116.991 108.725C117.419 108.725 117.704 108.44 117.704 108.013C117.704 107.728 117.561 107.443 117.276 107.3C117.704 107.015 118.131 106.873 118.701 106.873C119.699 106.873 120.126 107.585 120.126 108.725V110.15C119.699 109.723 118.986 109.295 118.131 109.295C116.706 109.295 115.851 110.15 115.851 111.148C115.851 112.145 116.706 113 118.131 113C118.986 113 119.699 112.715 120.126 112.145C120.269 112.715 120.696 113 121.409 113C121.979 113 122.406 112.715 122.691 112.288L122.264 112.003ZM119.984 111.575C119.414 112.145 118.844 112.43 118.274 112.43C117.419 112.43 116.849 112.003 116.849 111.29C116.849 110.578 117.419 110.15 118.274 110.15C118.844 110.15 119.414 110.293 119.984 111.005V111.575ZM129.673 107.158H130.671V106.73H127.394V107.158H128.391V109.295H125.114V107.158H126.111V106.73H122.834V107.158H123.831V112.43H122.834V112.858H126.111V112.43H125.114V109.723H128.391V112.288H127.394V112.715H130.671V112.288H129.673V107.158ZM138.508 107.158H139.506V106.73H136.228V107.158H137.226V107.728L133.948 111.005V107.158H134.946V106.73H131.668V107.158H132.666V112.43H131.668V112.858H134.946V112.43H133.948V111.86L137.226 108.583V112.43H136.228V112.858H139.506V112.43H138.508V107.158ZM145.633 107.158H146.631V106.73H143.211C141.928 106.73 140.646 107.3 140.646 108.583C140.646 109.295 141.358 110.008 142.213 110.293C141.786 110.435 141.501 110.72 141.358 111.148L140.931 112.003C140.646 112.573 140.361 112.715 139.933 112.715V113.143H141.501L142.641 111.29C143.068 110.578 143.638 110.578 144.351 110.578H144.636V112.715H143.638V113.143H146.916V112.715H145.918L145.633 107.158ZM144.493 109.723H143.638C142.641 109.723 142.071 109.295 142.071 108.44C142.071 107.585 142.641 107.158 143.638 107.158H144.493V109.723Z" fill="#231F20"/>
</g>
<defs>
<clipPath id="clip0_133_153">
<rect width="170" height="113" fill="white"/>
</clipPath>
</defs>
</svg>
