<svg width="231" height="55" viewBox="0 0 231 55" fill="none" xmlns="http://www.w3.org/2000/svg">
<g clip-path="url(#clip0_133_187)">
<path fill-rule="evenodd" clip-rule="evenodd" d="M0 41.3149L0.195652 13.8797C0.195652 13.1663 0.652174 12.5177 1.36957 12.3231L37.8261 0.0648667C38.3478 -0.129709 38.8696 -0.0648502 39.3261 0.324301C39.7826 0.648593 40.0435 1.1026 40.0435 1.68633V53.3137C40.0435 53.8974 39.7826 54.3514 39.3261 54.6757C38.8696 55 38.3478 55.0649 37.8261 54.9351L1.17391 42.9363C0.456522 42.6769 0 42.0932 0 41.3149ZM2.54348 40.7311L37.5652 52.2111V2.85378L2.73913 14.4635L2.54348 40.7311Z" fill="#4CA8F6"/>
<path fill-rule="evenodd" clip-rule="evenodd" d="M16.9561 8.88562H18.3908V46.763H16.9561V8.88562Z" fill="#4CA8F6"/>
<path fill-rule="evenodd" clip-rule="evenodd" d="M1.63086 28.2134V26.7866H38.6743V28.2134H1.63086Z" fill="#4CA8F6"/>
<path d="M65.9344 44.2984H69.7822L76.4996 21.2736H76.7605L83.2822 44.2984H87.1301L96.13 13.8797H98.9996V12.1934H89.3474V13.8797H93.4561L93.717 14.1392L86.5431 38.5908H86.2822L79.304 14.1392L79.5648 13.8797H82.7605V12.1934H71.4779V13.8797H74.6083L75.4561 17.1226L69.1301 38.5259H68.8692L61.3692 14.0743L61.6301 13.8149H64.7605V12.1285H53.2822V13.8149H56.6735L65.9344 44.2984ZM105.456 16.9929C106.891 16.9929 108.13 15.8255 108.13 14.3337C108.13 12.9068 106.956 11.6745 105.456 11.6745C104.021 11.6745 102.782 12.842 102.782 14.3337C102.847 15.7606 104.021 16.9929 105.456 16.9929ZM107.869 42.612L107.608 42.3526V22.2465L107.347 21.987C104.869 22.1816 102.391 22.2465 99.8474 22.2465V23.9328H103.434L103.695 24.1922V42.4175L103.434 42.6769H99.8474V44.3632H111.521V42.6769H107.869V42.612ZM138.717 42.612L138.456 42.3526V28.0189C138.456 24.5814 136.76 21.7925 131.804 21.7925C127.63 21.7925 124.891 23.8031 123.065 26.8514H122.804V22.3113L122.543 22.0519C120.065 22.2465 117.847 22.3113 115.304 22.3113V23.9976H118.891L119.152 24.2571V42.4823L118.891 42.7417H115.304V44.4281H126.847V42.7417H123.26L123 42.4823V29.8998C125.608 25.5542 128.021 23.9328 130.695 23.9328C133.63 23.9328 134.543 25.8785 134.543 28.9917V42.4175L134.282 42.6769H130.695V44.3632H142.239V42.6769H138.717V42.612ZM151.956 19.1981C151.956 15.9552 154.695 13.6203 158.674 13.6203C161.543 13.6203 166.043 14.9175 168.521 21.987L170.087 21.533C169.434 18.4847 168.913 15.5012 168.652 12.2583H166.956L165.913 14.204C163.76 12.6474 161.674 11.7394 158.804 11.7394C153.195 11.7394 148.565 14.9823 148.565 20.5601C148.565 31.3915 166.956 28.1486 166.956 37.0342C166.956 41.1851 162.847 42.8715 159.913 42.8715C156.587 42.8715 151.695 40.6663 148.695 33.5967L147.13 34.0507C147.782 37.0991 148.565 40.9906 148.826 44.2335H150.521L151.565 42.2877C153.913 43.7795 156.587 44.7524 159.782 44.7524C165.913 44.7524 170.413 41.4446 170.413 35.6073C170.413 23.7382 151.956 27.3054 151.956 19.1981ZM196.956 42.612L196.695 42.3526V22.2465L196.434 21.987C193.956 22.1816 191.478 22.2465 188.934 22.2465V23.9328H192.521L192.782 24.1922V36.645C190.174 40.9906 188.021 42.612 185.282 42.612C182.608 42.612 181.695 40.6663 181.695 37.5531V22.2465L181.434 21.987C178.956 22.1816 176.478 22.2465 173.934 22.2465V23.9328H177.521L177.782 24.1922V38.5908C177.782 42.0283 179.478 44.8172 184.174 44.8172C188.347 44.8172 190.891 42.8066 192.717 39.7583H192.978V44.2984L193.239 44.5578C195.717 44.3632 197.934 44.2984 200.478 44.2984V42.612H196.956ZM227.413 42.612L227.152 42.3526V28.0189C227.152 24.5814 225.456 21.7925 220.5 21.7925C216.326 21.7925 213.587 23.8031 211.76 26.8514H211.5V22.3113L211.239 22.0519C208.76 22.2465 206.543 22.3113 204 22.3113V23.9976H207.587L207.847 24.2571V42.4823L207.587 42.7417H204V44.4281H215.543V42.7417H211.956L211.695 42.4823V29.8998C214.304 25.5542 216.717 23.9328 219.391 23.9328C222.326 23.9328 223.239 25.8785 223.239 28.9917V42.4175L222.978 42.6769H219.391V44.3632H230.934V42.6769H227.413V42.612Z" fill="#375DBA"/>
</g>
<defs>
<clipPath id="clip0_133_187">
<rect width="231" height="55" fill="white"/>
</clipPath>
</defs>
</svg>
