<svg width="29" height="29" viewBox="0 0 29 29" fill="none" xmlns="http://www.w3.org/2000/svg">
<g clip-path="url(#clip0_205_747)">
<path d="M28.9921 13.2542C28.9885 13.1992 28.9783 13.1467 28.9601 13.0947C28.9535 13.0754 28.9486 13.0566 28.9402 13.0379C28.9112 12.9751 28.8743 12.9159 28.8236 12.8657L28.823 12.8651L25.375 9.41654V6.04167C25.375 6.02838 25.3684 6.0169 25.3671 6.0036C25.3635 5.95044 25.3533 5.89908 25.3363 5.84833C25.3297 5.829 25.3249 5.81027 25.3158 5.79154C25.2862 5.7275 25.2493 5.66648 25.1974 5.61452L19.7599 0.177021C19.7079 0.125063 19.6469 0.0876042 19.5823 0.058C19.5641 0.0501458 19.546 0.0447083 19.5279 0.0386667C19.4759 0.0205417 19.4228 0.0102708 19.3684 0.00664583C19.3563 0.00604167 19.3454 0 19.3333 0H4.22917C3.89567 0 3.625 0.270667 3.625 0.604167V9.41654L0.177021 12.8645L0.175813 12.8657C0.125063 12.9165 0.0888125 12.9757 0.0598125 13.0379C0.0513542 13.0566 0.0465208 13.0754 0.039875 13.0947C0.02175 13.1467 0.010875 13.1992 0.00785417 13.2542C0.00664583 13.2675 0 13.2784 0 13.2917V24.7708C0 25.1043 0.270667 25.375 0.604167 25.375H3.625V28.3958C3.625 28.7293 3.89567 29 4.22917 29H24.7708C25.1043 29 25.375 28.7293 25.375 28.3958V25.375H28.3958C28.7293 25.375 29 25.1043 29 24.7708V13.2917C29 13.2784 28.9934 13.2675 28.9921 13.2542ZM26.9374 12.6875H25.375V11.1251L26.9374 12.6875ZM23.3124 5.4375H19.9375V2.06263L23.3124 5.4375ZM4.83333 1.20833H18.7292V6.04167C18.7292 6.37517 18.9998 6.64583 19.3333 6.64583H24.1667V9.66667V12.6875H4.83333V9.66667V1.20833ZM3.625 11.1251V12.6875H2.06263L3.625 11.1251ZM24.1667 27.7917H4.83333V25.375H24.1667V27.7917ZM27.7917 24.1667H1.20833V13.8958H4.22917H24.7708H27.7917V24.1667Z" fill="#4CA8F6"/>
<path d="M11.0276 16.1433C10.8325 15.9759 10.612 15.8575 10.3649 15.7892C10.1184 15.721 9.8785 15.6865 9.6459 15.6865H7.63281V22.9583H8.84477V20.0414H9.70752C9.96067 20.0414 10.2072 19.9966 10.447 19.9078C10.6869 19.819 10.8989 19.6819 11.0838 19.497C11.2687 19.3121 11.4173 19.0813 11.5309 18.8034C11.6439 18.5261 11.7007 18.2029 11.7007 17.8331C11.7007 17.4223 11.6372 17.0797 11.5104 16.806C11.3835 16.5324 11.2228 16.3112 11.0276 16.1433ZM10.2525 18.7321C10.0676 18.9339 9.83137 19.0348 9.54379 19.0348H8.84537V16.7239H9.54379C9.83137 16.7239 10.0676 16.8127 10.2525 16.9909C10.4374 17.1691 10.5298 17.4531 10.5298 17.8434C10.5298 18.2337 10.4374 18.5297 10.2525 18.7321Z" fill="#4CA8F6"/>
<path d="M18.5625 22.9583H19.8053V19.8359H21.6643V18.778H19.7956V16.7958H21.8184V15.6865H18.5625V22.9583Z" fill="#4CA8F6"/>
<path d="M14.545 15.6865H12.7168V22.9583H14.5347C15.473 22.9583 16.1835 22.6417 16.6662 22.0085C17.149 21.3748 17.39 20.483 17.39 19.3327C17.39 18.1823 17.149 17.287 16.6662 16.6465C16.1835 16.0067 15.4766 15.6865 14.545 15.6865ZM16.0397 20.4468C15.9612 20.7658 15.8494 21.031 15.7062 21.243C15.5624 21.4551 15.3914 21.6146 15.1927 21.7203C14.9939 21.8267 14.7782 21.8798 14.5456 21.8798H13.9602V16.765H14.5456C14.7782 16.765 14.9939 16.8181 15.1927 16.9245C15.3914 17.0302 15.5624 17.1897 15.7062 17.4018C15.85 17.6138 15.9612 17.8809 16.0397 18.2029C16.1183 18.5249 16.1581 18.9013 16.1581 19.3327C16.1581 19.7574 16.1183 20.1284 16.0397 20.4468Z" fill="#4CA8F6"/>
</g>
<defs>
<clipPath id="clip0_205_747">
<rect width="29" height="29" fill="white"/>
</clipPath>
</defs>
</svg>
