<svg width="36" height="46" viewBox="0 0 36 46" fill="none" xmlns="http://www.w3.org/2000/svg">
<path d="M18 0C8.48555 0 0.75 7.73555 0.75 17.25C0.75 29.9719 16.6613 45.1016 17.3441 45.7395C17.5328 45.9102 17.7664 46 18 46C18.2336 46 18.4762 45.9102 18.6559 45.7395C19.3387 45.1016 35.25 29.9719 35.25 17.25C35.25 7.73555 27.5145 0 18 0ZM18 26.8363C12.7172 26.8363 8.41367 22.5328 8.41367 17.25C8.41367 11.9672 12.7172 7.66367 18 7.66367C23.2828 7.66367 27.5863 11.9672 27.5863 17.25C27.5863 22.5328 23.2828 26.8363 18 26.8363Z" fill="#375DBA"/>
</svg>
