<svg width="19" height="23" viewBox="0 0 19 23" fill="none" xmlns="http://www.w3.org/2000/svg">
<path d="M9.5 0C4.74277 0 0.875 3.86777 0.875 8.625C0.875 14.9859 8.83066 22.5508 9.17207 22.8697C9.26641 22.9551 9.3832 23 9.5 23C9.6168 23 9.73809 22.9551 9.82793 22.8697C10.1693 22.5508 18.125 14.9859 18.125 8.625C18.125 3.86777 14.2572 0 9.5 0ZM9.5 13.4182C6.85859 13.4182 4.70684 11.2664 4.70684 8.625C4.70684 5.98359 6.85859 3.83184 9.5 3.83184C12.1414 3.83184 14.2932 5.98359 14.2932 8.625C14.2932 11.2664 12.1414 13.4182 9.5 13.4182Z" fill="#375DBA"/>
</svg>
