<svg width="103" height="103" viewBox="0 0 103 103" fill="none" xmlns="http://www.w3.org/2000/svg">
<path d="M77.551 78.1589C76.2237 79.5254 75.8718 80.8565 75.905 82.4153L77.0403 82.4307C77.0519 81.0409 77.3122 79.9763 78.3156 78.9434C79.9251 77.2864 82.5144 77.3549 84.2574 79.048C86.0112 80.7516 86.1546 83.3165 84.5346 84.9843C83.5418 86.0064 82.4216 86.2985 81.2024 86.3481L81.2615 87.4928C82.7032 87.4295 83.9823 87.1245 85.3096 85.758C87.4626 83.5415 87.2448 80.2351 85.1144 78.1657C82.9302 76.0441 79.6622 75.9855 77.551 78.1589Z" fill="white"/>
<path d="M74.2085 81.6636L73.2055 82.2364L77.4156 89.609L71.3121 86.6341L71.26 86.6638L70.7277 93.4453L66.5102 86.0596L65.4812 86.6472L70.688 95.7653L71.73 95.1703L72.2102 88.2976L78.3732 91.3768L79.4153 90.7817L74.2085 81.6636Z" fill="white"/>
<path d="M59.3776 87.9112C56.2616 88.6173 54.7005 91.5702 55.3403 94.3936C55.9866 97.2463 58.6322 99.2154 61.7482 98.5094C64.8642 97.8033 66.4252 94.8504 65.7855 92.0269C65.1391 89.1743 62.4936 87.2052 59.3776 87.9112ZM59.5903 88.9858C61.931 88.4554 64.0589 89.9727 64.5859 92.2988C65.1196 94.6541 63.8761 96.9045 61.5355 97.4348C59.1948 97.9652 57.0669 96.4479 56.5399 94.1218C56.0062 91.7665 57.2496 89.5161 59.5903 88.9858Z" fill="white"/>
<path d="M50.7944 88.8752L49.5949 88.8381L49.3041 98.2536L45.7808 98.1448L45.7475 99.2243L53.9935 99.479L54.0269 98.3995L50.5035 98.2907L50.7944 88.8752Z" fill="white"/>
<path d="M45.5409 88.5356L44.3949 88.2343L43.453 91.8176L40.9867 91.1693C38.8252 90.6011 36.6998 91.2522 36.124 93.4428C35.5901 95.4738 36.7785 97.089 39.0707 97.6915L42.8716 98.6906L45.5409 88.5356ZM43.1784 92.8621L42.0039 97.3303L39.4361 96.6554C37.7968 96.2244 36.907 95.1841 37.2884 93.7333C37.6468 92.3697 38.9858 91.76 40.6687 92.2024L43.1784 92.8621Z" fill="white"/>
<path d="M37.029 86.0381L30.2903 82.3854L29.7756 83.3349L35.4726 86.4229L33.7213 89.6538L28.6837 86.9232L28.1691 87.8727L33.2066 90.6032L31.4983 93.755L25.8673 90.7028L25.3526 91.6523L32.0254 95.2692L37.029 86.0381Z" fill="white"/>
<path d="M27.2483 79.6826L26.3519 78.8848L20.0893 85.9216L17.4561 83.5781L16.7381 84.3848L22.9009 89.8696L23.6189 89.0628L20.9857 86.7193L27.2483 79.6826Z" fill="white"/>
<path d="M23.4482 76.0686L21.1192 72.7919C19.7375 70.848 17.8083 70.3605 16.1333 71.5511C14.3483 72.8198 14.675 74.8328 15.9785 76.6668L17.5167 78.8308L14.2034 81.1859L14.8899 82.1517L23.4482 76.0686ZM21.8814 75.7284L18.3847 78.2138L16.8031 75.9886C15.795 74.5704 15.7317 73.2904 16.8443 72.4995C18.0547 71.6392 19.283 72.0728 20.2563 73.4421L21.8814 75.7284Z" fill="white"/>
<path d="M17.1622 65.7785L15.8231 61.3098C15.1643 59.1114 13.7093 57.9659 11.985 58.4826C10.5769 58.9046 10.1757 60.074 10.1739 61.3742C9.59218 60.6873 8.67572 60.085 7.36817 60.4768C6.69284 60.6792 6.23009 61.0684 5.9239 61.6143C5.51708 62.3469 5.47654 63.3612 5.82101 64.5107L7.10415 68.7926L17.1622 65.7785ZM15.8062 64.9635L12.2571 66.027L11.3056 62.8515C10.7802 61.0985 11.1369 59.9895 12.2289 59.6622C13.3784 59.3178 14.3379 60.0637 14.7943 61.5868L15.8062 64.9635ZM11.2513 66.3284L7.78848 67.3661L6.87133 64.3056C6.44075 62.8687 6.85052 61.8847 7.84196 61.5876C9.04893 61.2259 9.95097 61.9891 10.36 63.3541L11.2513 66.3284Z" fill="white"/>
<path d="M14.814 57.3297L14.765 56.1757L5.7924 50.2962L14.4995 49.9264L14.4499 48.7574L3.95936 49.203L4.0071 50.327L12.9803 56.2215L4.27318 56.5913L4.32347 57.7753L14.814 57.3297Z" fill="white"/>
<path d="M16.643 49.2351L16.8651 48.255L14.6294 47.5331L16.5121 39.2237L18.7943 39.7408L19.013 38.7753L15.7174 37.844L15.4157 39.1752L6.2286 37.0936L4.71047 43.7938L6.49523 44.1982C9.81605 44.9506 12.203 46.0913 13.5462 47.4261L13.3076 48.4794L16.643 49.2351ZM13.8412 46.1241C12.6291 44.9574 9.99482 43.8222 7.34694 43.2222L6.01568 42.9206L7.02004 38.488L15.1539 40.3309L13.8412 46.1241Z" fill="white"/>
<path d="M17.0809 38.002L20.5831 31.1839L19.6224 30.6904L16.6617 36.4545L13.3927 34.7753L16.0108 29.6784L15.0501 29.185L12.432 34.2819L9.24314 32.6438L12.1696 26.9465L11.209 26.4531L7.74103 33.2045L17.0809 38.002Z" fill="white"/>
<path d="M24.5901 26.7451C26.7315 24.3739 26.3079 21.0607 24.1594 19.1204C21.9886 17.1599 18.6918 17.0729 16.5504 19.4441C14.409 21.8153 14.8326 25.1285 16.9812 27.0688C19.152 29.0292 22.4487 29.1163 24.5901 26.7451ZM23.7975 25.9889C22.189 27.7701 19.5756 27.7545 17.8056 26.156C16.0133 24.5373 15.7344 21.9814 17.343 20.2003C18.9516 18.4191 21.565 18.4347 23.335 20.0332C25.1273 21.6518 25.4061 24.2078 23.7975 25.9889Z" fill="white"/>
<path d="M35.5025 18.6162C38.3552 17.1775 39.1557 13.9347 37.8521 11.3498C36.5349 8.73813 33.4917 7.46738 30.639 8.90611C27.7862 10.3448 26.9857 13.5877 28.2894 16.1726C29.6065 18.7842 32.6498 20.055 35.5025 18.6162ZM35.0362 17.625C32.8933 18.7058 30.4616 17.7482 29.3876 15.6187C28.3001 13.4624 28.9624 10.978 31.1053 9.89731C33.2482 8.81658 35.6799 9.77415 36.7538 11.9037C37.8413 14.06 37.1791 16.5443 35.0362 17.625Z" fill="white"/>
<path d="M48.4255 15.0193C50.3194 14.8141 51.4397 14.0137 52.4087 12.7922L51.5444 12.0561C50.6486 13.1188 49.7689 13.7723 48.3373 13.9275C46.0408 14.1763 44.0907 12.4715 43.829 10.0556C43.5656 7.62485 45.0918 5.5584 47.4033 5.30792C48.82 5.15441 49.8689 5.64426 50.8392 6.38403L51.5242 5.46489C50.3736 4.59377 49.1942 4.01245 47.3002 4.21768C44.2282 4.55057 42.2862 7.23541 42.6061 10.1881C42.9342 13.2154 45.4131 15.3457 48.4255 15.0193Z" fill="white"/>
<path d="M53.432 14.5216L54.5733 14.6988L62.0912 7.04657L60.7542 15.6584L61.9104 15.8379L63.5212 5.46219L62.4095 5.28961L54.8768 12.9395L56.2138 4.32771L55.0428 4.14592L53.432 14.5216Z" fill="white"/>
<path d="M67.4558 18.3925C69.1962 19.1671 70.567 19.0385 72.0188 18.4697L71.6417 17.3988C70.3331 17.8671 69.2441 17.9899 67.9285 17.4043C65.8182 16.4649 64.9895 14.0108 65.9777 11.7908C66.972 9.55714 69.3302 8.53806 71.4543 9.48355C72.7562 10.063 73.4166 11.0138 73.8835 12.1411L74.9377 11.6909C74.381 10.3594 73.6537 9.26398 71.9133 8.48929C69.0903 7.2327 66.0618 8.57731 64.854 11.2906C63.6157 14.0725 64.6877 17.1603 67.4558 18.3925Z" fill="white"/>
<path d="M74.1409 22.2556L75.0903 22.9895L80.8516 15.5367L83.6405 17.6926L84.301 16.8382L77.7739 11.7924L77.1134 12.6469L79.9022 14.8028L74.1409 22.2556Z" fill="white"/>
<path d="M78.1405 25.54L83.0032 31.4651L83.838 30.78L79.7271 25.7709L82.5679 23.4395L86.203 27.8688L87.0379 27.1836L83.4028 22.7543L86.174 20.48L90.2373 25.4311L91.0722 24.7459L86.2571 18.8788L78.1405 25.54Z" fill="white"/>
<path d="M83.6978 32.3926L84.1635 33.4496L91.9326 30.0259L88.3414 35.7884L88.3656 35.8433L95.0554 37.0752L87.2726 40.5049L87.7505 41.5893L97.3589 37.3551L96.875 36.257L90.0891 35.0674L93.7901 29.2566L93.3062 28.1585L83.6978 32.3926Z" fill="white"/>
<path d="M87.9183 43.0052L89.007 50.5924L90.076 50.4391L89.1556 44.0247L92.7934 43.5028L93.6072 49.1747L94.6763 49.0213L93.8624 43.3494L97.4111 42.8402L98.3208 49.1803L99.3899 49.0269L98.3118 41.5138L87.9183 43.0052Z" fill="white"/>
<circle cx="91.5" cy="66.5" r="2.5" fill="white"/>
</svg>
