<svg width="17" height="15" viewBox="0 0 17 15" fill="none" xmlns="http://www.w3.org/2000/svg">
<g clip-path="url(#clip0_133_198)">
<path d="M15.7652 0.166933L0.666014 6.21532C0.666014 6.21532 -0.0503095 6.46302 0.00609396 6.92385C0.0624974 7.38468 0.643453 7.59781 0.643453 7.59781L4.4394 8.90541L4.44505 8.91117V8.90541L13.5598 2.98951C13.5598 2.98951 14.0844 2.66117 14.0675 2.98951C14.0675 2.98951 14.1634 3.04712 13.8813 3.31785C13.5993 3.58859 6.7181 9.90196 6.7181 9.90196L6.70682 10.0229L12.8999 14.8732C13.9321 15.334 14.31 14.372 14.31 14.372L17.0005 0.529836C17.0005 -0.391823 15.7596 0.166933 15.7652 0.166933Z" fill="#6E7191"/>
<path d="M9.07569 11.8779L6.62214 14.1647C6.62214 14.1647 6.43037 14.3145 6.22168 14.2224L6.68983 9.97696" fill="#6E7191"/>
</g>
<defs>
<clipPath id="clip0_133_198">
<rect width="17" height="15" fill="white"/>
</clipPath>
</defs>
</svg>
