<svg width="22" height="12" viewBox="0 0 22 12" fill="none" xmlns="http://www.w3.org/2000/svg">
<g clip-path="url(#clip0_133_173)">
<path d="M0.210251 1.81515C0.0252472 1.35642 -0.211146 0.878181 0.349003 0.619539C1.48472 0.604899 2.62043 0.590259 3.76129 0.575618C4.25463 0.590259 4.48075 0.936741 4.74284 1.41986C5.50855 2.82043 6.30509 4.21612 7.26608 5.49957C7.57956 5.91925 8.10887 6.0803 8.52513 5.41173C8.57138 4.50893 8.61763 3.60612 8.66388 2.70331C8.50971 1.65411 8.12429 1.03434 7.45108 0.970901C7.06566 0.614659 7.34316 0.321857 8.20651 0.165696C9.57862 -0.112466 10.776 0.0144146 11.8295 0.141295C12.7185 0.194976 12.847 0.76594 12.8316 1.41986C12.8008 2.61547 12.7751 3.81596 12.7751 5.01157C13.0372 6.2267 13.7361 5.73869 14.1986 5.21165C15.0259 4.09412 15.7454 3.00587 16.3467 1.78099C16.9685 0.521938 17.1381 0.614659 17.5749 0.609779C18.6181 0.604899 19.7692 0.556098 20.6017 0.585379C22.3387 0.487778 22.1383 1.21978 21.6501 1.99571C20.8073 3.34748 19.723 4.56749 18.7568 5.85581C18.171 6.61222 18.1813 7.08558 18.8031 7.49551C19.723 8.45687 20.7199 9.3548 21.5576 10.3796C22.4672 11.4971 21.7991 11.8046 20.9512 11.8875C19.9388 11.8875 18.9264 11.8875 17.9141 11.8875C17.0507 11.9022 16.2696 11.6972 15.7197 10.8237C14.4504 9.22792 13.5048 8.78871 13.1245 9.68664C12.9601 10.0819 12.8213 10.6138 12.8265 11.1311C12.8316 11.8534 12.3742 11.9119 11.7524 11.9315C11.0843 11.9315 10.3906 12.0876 9.74307 11.9315C7.45108 11.38 5.2516 10.365 3.10864 6.87574C2.14251 5.36781 1.17638 3.71836 0.210251 1.81515Z" fill="#6E7191"/>
</g>
<defs>
<clipPath id="clip0_133_173">
<rect width="22" height="12" fill="white"/>
</clipPath>
</defs>
</svg>
